<svg width="365" height="60" viewBox="0 0 365 60" fill="none" xmlns="http://www.w3.org/2000/svg">
<path d="M38.071 16.5C36.4247 7.40199 29.1463 2.02983 20.2216 2.02983C8.87074 2.02983 0.639205 10.7812 0.639205 24.8182C0.639205 38.8551 8.87074 47.6065 20.2216 47.6065C29.1463 47.6065 36.4247 42.2344 38.071 33.1364H32.6989C31.3992 39.2884 26.1136 42.581 20.2216 42.581C12.1634 42.581 5.83807 36.3423 5.83807 24.8182C5.83807 13.294 12.1634 7.0554 20.2216 7.0554C26.1136 7.0554 31.3992 10.348 32.6989 16.5H38.071ZM59.5759 47.6932C68.5873 47.6932 74.6526 40.848 74.6526 30.5369C74.6526 20.1392 68.5873 13.294 59.5759 13.294C50.5645 13.294 44.4992 20.1392 44.4992 30.5369C44.4992 40.848 50.5645 47.6932 59.5759 47.6932ZM59.5759 43.1009C52.7307 43.1009 49.6114 37.2088 49.6114 30.5369C49.6114 23.8651 52.7307 17.8864 59.5759 17.8864C66.4211 17.8864 69.5404 23.8651 69.5404 30.5369C69.5404 37.2088 66.4211 43.1009 59.5759 43.1009ZM103.425 33.3963C103.425 39.6349 98.6594 42.4943 94.8469 42.4943C90.6012 42.4943 87.5685 39.375 87.5685 34.5227V13.7273H82.4563V34.8693C82.4563 43.3608 86.962 47.4332 93.2006 47.4332C98.2262 47.4332 101.519 44.7472 103.078 41.3679H103.425V47H108.537V13.7273H103.425V33.3963ZM123.013 26.9844C123.013 21.179 126.609 17.8864 131.504 17.8864C136.248 17.8864 139.129 20.984 139.129 26.2045V47H144.242V25.858C144.242 17.3665 139.714 13.294 132.977 13.294C127.952 13.294 124.832 15.5469 123.273 18.9261H122.84V13.7273H117.901V47H123.013V26.9844ZM168.053 13.7273H160.948V5.75568H155.836V13.7273H150.811V18.0597H155.836V38.8551C155.836 44.6605 160.515 47.4332 164.847 47.4332C166.754 47.4332 167.967 47.0866 168.66 46.8267L167.62 42.2344C167.187 42.321 166.494 42.4943 165.367 42.4943C163.115 42.4943 160.948 41.8011 160.948 37.4688V18.0597H168.053V13.7273ZM176.101 47H181.213V25.9446C181.213 21.4606 184.766 18.1463 189.618 18.1463C190.896 18.1463 191.849 18.3846 192.564 18.7528L194.297 14.4205C193.257 13.6839 191.892 13.2074 190.051 13.2074C186.022 13.2074 182.578 15.4602 181.386 18.7528H181.04V13.7273H176.101V47ZM202.631 59.9105C207.31 59.9105 210.516 57.4844 212.422 52.3722L226.719 13.7273H221.174L211.989 40.2415H211.643L202.458 13.7273H196.913L209.303 47.2599L208.09 50.2926C206.184 55.2315 203.931 55.7514 200.205 54.7983L198.905 59.304C199.425 59.5639 200.898 59.9105 202.631 59.9105Z" fill="#0E17B1"/>
<path d="M242.218 2.63636H230.218L245.186 47H259.461L274.43 2.63636H262.429L252.508 35.1293H252.14L242.218 2.63636ZM279.206 47H289.799V13.7273H279.206V47ZM284.513 10.283C287.416 10.283 289.951 8.09517 289.951 5.21413C289.951 2.3331 287.416 0.166903 284.513 0.166903C281.632 0.166903 279.076 2.3331 279.076 5.21413C279.076 8.09517 281.632 10.283 284.513 10.283ZM328.861 47V2.63636H318.268V19.4244H318.051C316.773 16.37 313.892 13.294 308.629 13.294C301.675 13.294 295.393 18.6445 295.393 30.3853C295.393 41.7145 301.328 47.4766 308.694 47.4766C313.719 47.4766 316.708 44.6822 318.051 41.6062H318.376V47H328.861ZM318.485 30.3636C318.485 35.7575 316.232 39.2234 312.354 39.2234C308.434 39.2234 306.267 35.7358 306.267 30.3636C306.267 25.0131 308.434 21.5689 312.354 21.5689C316.232 21.5689 318.485 24.9265 318.485 30.3636ZM335.646 47H364.175V38.7685H349.402V38.5518L363.699 20.3558V13.7273H336.015V21.9588H351.07V22.1754L335.646 40.9563V47Z" fill="#049F1E"/>
</svg>
